<svg id="visual" viewBox="0 0 960 540" width="960" height="540" xmlns="http://www.w3.org/2000/svg" xmlns:xlink="http://www.w3.org/1999/xlink" version="1.1"><rect x="0" y="0" width="960" height="540" fill="#B3C8CF"></rect><defs><linearGradient id="grad1_0" x1="43.8%" y1="0%" x2="100%" y2="100%"><stop offset="14.444444444444446%" stop-color="#b3c8cf" stop-opacity="1"></stop><stop offset="85.55555555555554%" stop-color="#b3c8cf" stop-opacity="1"></stop></linearGradient></defs><defs><linearGradient id="grad2_0" x1="0%" y1="0%" x2="56.3%" y2="100%"><stop offset="14.444444444444446%" stop-color="#b3c8cf" stop-opacity="1"></stop><stop offset="85.55555555555554%" stop-color="#b3c8cf" stop-opacity="1"></stop></linearGradient></defs><g transform="translate(960, 0)"><path d="M0 351C-30.7 328 -61.4 304.9 -96.1 295.8C-130.8 286.6 -169.6 291.3 -202.8 279.1C-235.9 266.9 -263.4 237.7 -284 206.3C-304.5 174.9 -318.1 141.4 -328.1 106.6C-338.1 71.9 -344.6 35.9 -351 0L0 0Z" fill="#E5DDC5"></path></g><g transform="translate(0, 540)"><path d="M0 -351C37.1 -348.3 74.3 -345.7 108.5 -333.8C142.7 -322 173.9 -300.9 201.6 -277.5C229.3 -254.1 253.4 -228.3 275.1 -199.8C296.7 -171.4 315.9 -140.4 328.1 -106.6C340.4 -72.9 345.7 -36.4 351 0L0 0Z" fill="#E5DDC5"></path></g></svg>