<svg xmlns="http://www.w3.org/2000/svg" version="1.1" xmlns:xlink="http://www.w3.org/1999/xlink" xmlns:svgjs="http://svgjs.dev/svgjs" width="1500" height="1500" viewBox="0 0 1500 1500"><rect width="1500" height="1500" fill="#ffffff"></rect><g transform="matrix(0.6666666666666666,0,0,0.6666666666666666,249.39393939411622,627.4741711131975)"><svg viewBox="0 0 396 97" data-background-color="#e5ddc5" preserveAspectRatio="xMidYMid meet" height="367" width="1500" xmlns="http://www.w3.org/2000/svg" xmlns:xlink="http://www.w3.org/1999/xlink"><g id="tight-bounds" transform="matrix(1,0,0,1,0.239999999929978,0.07631635702935569)"><svg viewBox="0 0 395.52 96.84736728594129" height="96.84736728594129" width="395.52"><g><svg viewBox="0 0 559.9688011180482 137.11444212820547" height="96.84736728594129" width="395.52"><g transform="matrix(1,0,0,1,164.4488011180482,39.6106540794847)"><svg viewBox="0 0 395.52 57.89313396923606" height="57.89313396923606" width="395.52"><g id="textblocktransform"><svg viewBox="0 0 395.52 57.89313396923606" height="57.89313396923606" width="395.52" id="textblock"><g><svg viewBox="0 0 395.52 57.89313396923606" height="57.89313396923606" width="395.52"><g transform="matrix(1,0,0,1,0,0)"><svg width="395.52" viewBox="3.1 -35.4 249.344285714 36.5" height="57.89313396923606" data-palette-color="#636365"><g class="wordmark-text-0" data-fill-palette-color="primary" id="text-0"><path d="M4.4 0Q3.45 0 3.45-1.7L3.45-1.7 3.5-3 3.4-5.5 3.35-7.75 3.3-9.25Q3.1-11.85 3.1-15.15L3.1-15.15Q3.1-17.1 3.3-20.3L3.3-20.3Q3.5-23.5 3.5-25.55L3.5-25.55 3.45-32.25Q3.4-33.05 3.4-34.05L3.4-34.05Q3.4-34.6 4.13-34.73 4.85-34.85 5.65-34.83 6.45-34.8 6.75-34.8L6.75-34.8 8.55-34.9Q10.65-35 11.95-35L11.95-35Q15-35 18.45-33.38 21.9-31.75 24.5-27.45 27.1-23.15 27.1-15.75L27.1-15.75Q27.1-9 23.88-5.53 20.65-2.05 17.1-1.07 13.55-0.1 11.2-0.1L11.2-0.1 7.1-0.05Q6 0 4.4 0L4.4 0ZM12.05-10.7Q13.4-11.35 14.55-12.5L14.55-12.5Q17.05-14.9 17.05-18.2L17.05-18.2Q17.05-21.35 14.65-23.25L14.65-23.25Q13.6-24.05 12.3-24.45L12.3-24.45Q12.4-23.35 12.4-22.75L12.4-22.75Q12.4-21.8 12.3-20L12.3-20Q12.2-18.3 12.2-17.5L12.2-17.5Q12.2-16.2 12.1-13.3L12.1-13.3Q12.05-12.45 12.05-10.7L12.05-10.7ZM38.4 0.55Q34.75 0.55 32.55-0.9 30.35-2.35 30.35-6.05L30.35-6.05Q30.6-8.45 33.9-9.6 37.2-10.75 41.3-10.75L41.3-10.75Q42.6-10.75 44.4-10.95L44.4-10.95Q46.2-11.15 47.7-11.15L47.7-11.15Q47.5-16.55 47.02-19.63 46.55-22.7 45.42-24.25 44.3-25.8 42.25-25.8L42.25-25.8Q40.75-25.8 39.4-25.1 38.05-24.4 36.05-22.9L36.05-22.9Q34.4-21.7 34.4-21.7L34.4-21.7Q34.35-21.7 34.07-21.53 33.8-21.35 33.55-21.4L33.55-21.4Q33.1-21.5 33.1-21.85L33.1-21.85Q32.9-22.15 32.62-23.2 32.35-24.25 32.35-24.7L32.35-24.7Q32.35-25 32.95-25.4L32.95-25.4Q35.5-27.3 37.27-28.23 39.05-29.15 40.32-29.4 41.6-29.65 43.3-29.65L43.3-29.65Q48.3-29.65 50.02-26.43 51.75-23.2 51.75-17.85L51.75-17.85Q51.75-16.45 51.65-14.05L51.65-14.05Q51.65-12.6 51.45-9.8L51.45-9.8 51.4-8.6 51.45-5.65Q51.55-3.65 51.55-2.6L51.55-2.6 51.5-1.1Q51.4 0.05 50.6 0.05L50.6 0.05 50.2 0 48.15 0Q47.95 0 47.77-0.18 47.6-0.35 47.6-0.6L47.6-0.6 47.6-1Q44.6-0.15 42.8 0.2 41 0.55 38.4 0.55L38.4 0.55ZM38.45-2.3Q43.8-2.3 47.6-4.1L47.6-4.1 47.75-8.75Q45.4-8.95 43.7-8.95L43.7-8.95 40.75-8.9Q38.35-8.9 36.45-7.98 34.55-7.05 34.4-5.4L34.4-5.4Q34.4-3.6 35.25-2.95 36.1-2.3 38.45-2.3L38.45-2.3ZM67.05 0.65Q66.75 0.65 66.44 0.13 66.14-0.4 66-0.95L66-0.95Q65.69-1.45 64.25-5.45L64.25-5.45 63.59-7.1Q63.49-7.35 62.8-9.3L62.8-9.3Q62.05-11.5 61.84-12L61.84-12Q61.59-12.65 60.84-14.9L60.84-14.9Q60.49-15.85 59.67-18.32 58.84-20.8 58.49-21.5L58.49-21.5Q57.74-23.15 56.09-27.9L56.09-27.9Q55.99-28.2 55.92-28.4 55.84-28.6 55.84-28.75L55.84-28.75Q55.84-29 56.14-29L56.14-29 57.45-29Q61.55-29 61.84-29.05L61.84-29.05 62.3-29.1Q62.39-29.15 62.55-29.15L62.55-29.15Q62.8-29.15 62.92-28.88 63.05-28.6 63.2-27.9L63.2-27.9 63.89-25.65Q65.14-21.9 65.34-21.2L65.34-21.2 66-19.2Q66.19-18.75 66.39-18L66.39-18 67.3-15 67.5-15.55 68.5-18.2Q68.64-18.5 68.87-19.15 69.09-19.8 69.25-20.2L69.25-20.2 69.64-21.35 71.5-26.6Q71.84-27.55 72.3-28.48 72.75-29.4 73.09-29.4L73.09-29.4Q73.44-29.4 73.59-29.25 73.75-29.1 73.94-28.7L73.94-28.7 74.39-27.75Q74.55-27.4 75.47-25.48 76.39-23.55 77-21.65L77-21.65 78.3-18.8 79.05-17.1Q79.25-17.65 79.64-19.15L79.64-19.15Q79.84-19.75 80-20.75L80-20.75Q80.05-21.1 80.19-21.75 80.34-22.4 80.5-22.95L80.5-22.95Q80.8-24.15 81.22-25.58 81.64-27 82-27.8L82-27.8Q82.09-28 82.3-28.5 82.5-29 82.64-29.15 82.8-29.3 83-29.3L83-29.3Q83.44-29.35 84.14-29.4 84.84-29.45 85.39-29.45L85.39-29.45Q85.8-29.45 85.94-29.4L85.94-29.4Q86.44-29.4 86.44-29.05L86.44-29.05Q86.44-29 86.34-28.5L86.34-28.5Q86.19-28.2 86-27.4L86-27.4Q85.5-25.75 85.44-25.6L85.44-25.6 84.59-22.5Q83.55-18.4 83.25-17.55L83.25-17.55Q83.05-16.55 82.52-14.78 82-13 81.75-12.25L81.75-12.25Q81.69-12.15 81.44-11.25L81.44-11.25Q81.19-10.3 81-9.8L81-9.8Q80.5-8.55 79.25-3.7L79.25-3.7Q78.39-0.7 78.34-0.65L78.34-0.65Q78.25-0.2 78.09 0.23 77.94 0.65 77.75 0.65L77.75 0.65Q77.5 0.65 77.39 0.53 77.3 0.4 77.22 0.18 77.14-0.05 77.05-0.25L77.05-0.25Q76.8-0.55 75.69-3.6L75.69-3.6 75.3-4.65Q74.84-5.6 74-8.2L74-8.2 73.5-9.6Q73.3-10.5 72.64-12.05L72.64-12.05 72.05-13.6 71.5-11.85Q71.3-11.45 71.14-10.8L71.14-10.8Q71.05-10.5 70.82-9.8 70.59-9.1 70.3-8.4L70.3-8.4 67.75-0.85Q67.39 0.65 67.05 0.65L67.05 0.65ZM101.59 0.6Q98.34 0.6 95.37-1.83 92.39-4.25 90.59-8.45 88.79-12.65 88.79-17.7L88.79-17.7Q88.79-22.7 90.52-26.7 92.24-30.7 94.94-32.95 97.64-35.2 100.49-35.2L100.49-35.2Q104.04-35.2 106.22-33.73 108.39-32.25 109.34-30.9L109.34-30.9Q109.54-30.6 109.72-30.35 109.89-30.1 109.89-29.85L109.89-29.85Q109.89-29.55 109.34-29.05L109.34-29.05Q107.04-27.25 106.04-25.9L106.04-25.9Q105.54-25.25 105.19-24.93 104.84-24.6 104.49-24.6L104.49-24.6Q104.14-24.6 103.69-25.1L103.69-25.1Q102.64-26.25 102.07-26.73 101.49-27.2 100.69-27.2L100.69-27.2Q99.44-27.2 98.22-26.15 96.99-25.1 96.14-22.68 95.29-20.25 95.29-16.45L95.29-16.45Q95.29-12.75 96.37-10.58 97.44-8.4 98.82-7.55 100.19-6.7 101.19-6.7L101.19-6.7Q102.09-6.7 103.04-7.33 103.99-7.95 104.69-8.65L104.69-8.65Q104.79-8.75 105.02-9 105.24-9.25 105.44-9.25L105.44-9.25Q105.69-9.25 106.04-9.05L106.04-9.05 110.29-6.7Q110.49-6.6 110.92-6.43 111.34-6.25 111.52-6.1 111.69-5.95 111.69-5.7L111.69-5.7Q111.69-5.45 111.54-5.15L111.54-5.15Q110.44-3.3 108.09-1.35 105.74 0.6 101.59 0.6L101.59 0.6ZM125.69 1.1Q119.09 1.1 116.89-3.98 114.69-9.05 114.69-14.85L114.69-14.85Q114.69-20.45 116.39-23.83 118.09-27.2 120.52-28.55 122.94-29.9 125.39-29.9L125.39-29.9Q129.99-29.9 132.34-27.48 134.69-25.05 135.34-21.73 135.99-18.4 135.99-14.25L135.99-14.25Q135.99-10.9 134.87-7.33 133.74-3.75 131.41-1.33 129.09 1.1 125.69 1.1L125.69 1.1ZM125.34-8.6Q126.99-8.6 127.77-10.15 128.54-11.7 128.54-13.9L128.54-13.9Q128.54-16.75 127.81-17.93 127.09-19.1 125.64-19.1L125.64-19.1Q122.54-19.1 122.54-13.5L122.54-13.5Q122.54-11.4 123.09-10 123.64-8.6 125.34-8.6L125.34-8.6ZM142.49 0Q142.19 0 142.06-0.15 141.94-0.3 141.94-0.65L141.94-0.65 141.89-3.45Q141.64-13.2 141.69-14.7L141.69-14.7 141.69-29.2Q141.69-29.9 142.34-29.9L142.34-29.9 143.24-29.9 144.34-29.85Q144.74-29.85 144.74-29L144.74-29 144.69-27.2 146.19-27.95Q148.14-28.9 149.66-29.38 151.19-29.85 153.54-29.85L153.54-29.85Q155.84-29.85 157.36-29.13 158.89-28.4 160.19-26.6L160.19-26.6Q161.59-24.9 161.59-19.2L161.59-19.2 161.64-10.5 161.59-7.5Q161.49-4.3 161.49-2.8L161.49-2.8Q161.49-1.5 161.54-1.25L161.54-1.25Q161.64-0.75 161.64-0.7L161.64-0.7Q161.64-0.4 161.51-0.28 161.39-0.15 161.09-0.1L161.09-0.1Q160.69 0 159.81 0 158.94 0 158.74 0L158.74 0Q158.39 0 158.29-0.2 158.19-0.4 158.19-1.15L158.19-1.15 158.39-9.45 158.49-14.1 158.54-17.6Q158.54-22.2 157.89-23.6L157.89-23.6Q157.24-24.9 156.71-25.53 156.19-26.15 155.31-26.43 154.44-26.7 152.79-26.7L152.79-26.7Q150.79-26.7 148.61-25.85 146.44-25 145.04-23.95L145.04-23.95Q145.04-20 145.09-17.05L145.09-17.05 145.09-10.15Q145.19-7.65 145.24-4.85 145.29-2.05 145.29-0.8L145.29-0.8Q145.29-0.4 145.06-0.2 144.84 0 144.19 0L144.19 0 142.49 0ZM169.64 0Q169.34 0 169.21-0.15 169.09-0.3 169.09-0.65L169.09-0.65 169.04-3.45Q168.79-13.2 168.84-14.7L168.84-14.7 168.84-29.2Q168.84-29.9 169.49-29.9L169.49-29.9 170.39-29.9 171.49-29.85Q171.89-29.85 171.89-29L171.89-29 171.84-27.2 173.34-27.95Q175.29-28.9 176.81-29.38 178.34-29.85 180.69-29.85L180.69-29.85Q182.99-29.85 184.51-29.13 186.04-28.4 187.34-26.6L187.34-26.6Q188.74-24.9 188.74-19.2L188.74-19.2 188.79-10.5 188.74-7.5Q188.64-4.3 188.64-2.8L188.64-2.8Q188.64-1.5 188.69-1.25L188.69-1.25Q188.79-0.75 188.79-0.7L188.79-0.7Q188.79-0.4 188.66-0.28 188.54-0.15 188.24-0.1L188.24-0.1Q187.84 0 186.96 0 186.09 0 185.89 0L185.89 0Q185.54 0 185.44-0.2 185.34-0.4 185.34-1.15L185.34-1.15 185.54-9.45 185.64-14.1 185.69-17.6Q185.69-22.2 185.04-23.6L185.04-23.6Q184.39-24.9 183.86-25.53 183.34-26.15 182.46-26.43 181.59-26.7 179.94-26.7L179.94-26.7Q177.94-26.7 175.76-25.85 173.59-25 172.19-23.95L172.19-23.95Q172.19-20 172.24-17.05L172.24-17.05 172.24-10.15Q172.34-7.65 172.39-4.85 172.44-2.05 172.44-0.8L172.44-0.8Q172.44-0.4 172.21-0.2 171.99 0 171.34 0L171.34 0 169.64 0ZM206.03 1.1Q198.53 1.1 196.03-3.98 193.53-9.05 193.53-14.85L193.53-14.85Q193.53-20.45 195.23-23.83 196.93-27.2 199.36-28.55 201.78-29.9 204.23-29.9L204.23-29.9Q208.83-29.9 211.16-27.25 213.48-24.6 214.16-21.08 214.83-17.55 214.83-13.45L214.83-13.45Q214.83-13.1 214.33-13L214.33-13Q212.68-13 206.73-12.45L206.73-12.45Q205.78-12.35 204.43-12.23 203.08-12.1 201.43-12L201.43-12Q201.88-7.15 206.68-7.15L206.68-7.15Q208.28-7.15 209.16-7.45 210.03-7.75 211.98-8.7L211.98-8.7Q212.33-8.7 212.61-8.3 212.88-7.9 213.38-6.65L213.38-6.65Q213.53-6.4 213.76-5.7 213.98-5 214.18-4.65L214.18-4.65Q215.13-2.25 215.08-2.15L215.08-2.15Q214.98-1.95 214.53-1.6L214.53-1.6Q213.48-0.55 211.16 0.28 208.83 1.1 206.03 1.1L206.03 1.1ZM201.43-14.9L207.23-15.4Q206.83-21.1 204.48-21.1L204.48-21.1Q203.08-21.1 202.33-19.48 201.58-17.85 201.43-14.9L201.43-14.9ZM229.68 0.6Q224.13 0.6 221.18-3.68 218.23-7.95 218.23-14.85L218.23-14.85Q218.23-19.2 219.63-22.55 221.03-25.9 223.56-27.75 226.08-29.6 229.38-29.6L229.38-29.6Q232.58-29.6 234.58-28.45 236.58-27.3 237.33-26.25L237.33-26.25Q237.38-26.2 237.61-25.93 237.83-25.65 237.83-25.4L237.83-25.4Q237.83-25.15 237.33-24.7L237.33-24.7Q236.88-24.25 236.13-23.3L236.13-23.3Q235.63-22.5 235.33-22.5L235.33-22.5Q235.18-22.5 234.98-22.73 234.78-22.95 234.68-23.05L234.68-23.05Q233.78-24 232.46-24.85 231.13-25.7 229.83-25.7L229.83-25.7Q227.08-25.7 225.23-24.83 223.38-23.95 222.28-21.38 221.18-18.8 221.18-14L221.18-14Q221.18-6.55 223.66-4.33 226.13-2.1 228.93-2.1L228.93-2.1Q230.23-2.1 232.06-3.23 233.88-4.35 235.28-6.95L235.28-6.95Q235.73-7.5 235.98-7.5L235.98-7.5Q236.23-7.5 236.48-7.3L236.48-7.3 237.23-6.7Q237.68-6.3 238.21-5.65 238.73-5 238.73-4.7L238.73-4.7Q238.73-4.5 238.58-4.25L238.58-4.25Q237.58-2.65 235.48-1.03 233.38 0.6 229.68 0.6L229.68 0.6ZM247.63 0.2Q245.63 0.2 244.63-0.4 243.63-1 243.33-2.08 243.03-3.15 243.03-5L243.03-5 243.08-8.1 243.33-14 243.48-18.4 243.48-25.7Q241.08-25.7 240.73-26.5L240.73-26.5Q240.58-26.9 240.58-27.35L240.58-27.35Q240.58-27.85 240.65-28.3 240.73-28.75 240.73-29.15L240.73-29.15Q241.63-29.1 243.48-29.1L243.48-29.1 243.53-29.3 243.58-31.2 243.58-33.35Q243.53-34.55 243.75-34.98 243.98-35.4 244.43-35.4L244.43-35.4Q244.68-35.4 244.83-35.35L244.83-35.35 244.93-35.35Q245.03-35.35 245.28-35.38 245.53-35.4 245.73-35.3L245.73-35.3Q246.73-35.15 246.73-34.45L246.73-34.45Q246.73-34.3 246.63-33.3L246.63-33.3Q246.38-31.55 246.28-29.1L246.28-29.1 251.08-29.1Q251.48-29.1 251.73-28.43 251.98-27.75 251.98-27L251.98-27Q251.98-26 251.53-25.85L251.53-25.85Q250.58-25.55 249.23-25.55L249.23-25.55Q248.03-25.55 246.23-25.75L246.23-25.75 246.23-13.9 246.18-11.9Q246.03-9.95 246.03-7.85L246.03-7.85 246.03-6.85Q246.03-5.25 246.73-4.48 247.43-3.7 248.58-3.7L248.58-3.7Q249.68-3.7 250.48-3.78 251.28-3.85 251.63-3.85L251.63-3.85Q252.18-3.85 252.18-1.9L252.18-1.9 252.38-1.1Q252.53-0.75 252.33-0.7L252.33-0.7Q250.73-0.1 249.95 0.05 249.18 0.2 247.63 0.2L247.63 0.2Z" fill="#000000" data-fill-palette-color="primary"></path></g></svg></g></svg></g></svg></g></svg></g><g><svg viewBox="0 0 137.11444212820547 137.11444212820547" height="137.11444212820547" width="137.11444212820547"><g><svg></svg></g><g id="icon-0"><svg viewBox="0 0 137.11444212820547 137.11444212820547" height="137.11444212820547" width="137.11444212820547"><g><path d="M0 68.557c0-37.863 30.694-68.557 68.557-68.557 37.863 0 68.557 30.694 68.557 68.557 0 37.863-30.694 68.557-68.557 68.557-37.863 0-68.557-30.694-68.557-68.557zM68.557 131.894c34.98 0 63.336-28.357 63.337-63.337 0-34.98-28.357-63.336-63.337-63.336-34.98 0-63.336 28.357-63.336 63.336 0 34.98 28.357 63.336 63.336 63.337z" data-fill-palette-color="accent" fill="#000000" stroke="transparent"></path></g><g transform="matrix(1,0,0,1,34.34641971997553,32.413606084714104)"><svg viewBox="0 0 68.42160268825441 72.28722995877726" height="72.28722995877726" width="68.42160268825441"><g><svg xmlns="http://www.w3.org/2000/svg" xmlns:xlink="http://www.w3.org/1999/xlink" version="1.1" x="0" y="0" viewBox="5.7 3.2 88.5 93.5" enable-background="new 0 0 100 100" xml:space="preserve" height="72.28722995877726" width="68.42160268825441" class="icon-dxe-0" data-fill-palette-color="accent" id="dxe-0"><path d="M83.5 3.2H16.3C10.3 3.2 5.7 7.7 5.7 13.6V69.3C5.7 70.4 5.9 71.5 6.2 72.5 7.5 76.9 11.4 79.8 16 79.8H23.8C25.2 82.9 27.2 85.8 29.7 88.3 35.1 93.7 42.3 96.7 50 96.7S64.9 93.7 70.3 88.3C72.8 85.8 74.8 82.9 76.2 79.8H83.4C85.1 79.8 86.8 79.6 88.3 78.8 92.2 76.8 94.2 73.6 94.2 69.2V13.9C94.2 7.7 89.8 3.2 83.5 3.2M82.5 8.6C84.4 8.6 85.9 10.1 85.9 12S84.4 15.4 82.5 15.4 79.1 13.9 79.1 12 80.6 8.6 82.5 8.6M70.7 8.6C72.6 8.6 74.1 10.1 74.1 12S72.6 15.4 70.7 15.4 67.3 13.9 67.3 12 68.9 8.6 70.7 8.6M59 8.6C60.9 8.6 62.4 10.1 62.4 12S60.9 15.4 59 15.4 55.6 13.9 55.6 12 57.1 8.6 59 8.6M27 68.1C27 66.1 27.3 64 27.8 62.1H36.2C35.9 64.2 35.8 66.3 35.8 68.4 35.8 70.3 35.9 72.2 36.1 74.1H27.8C27.3 72.1 27 70.1 27 68.1M41.5 68.4C41.5 66.3 41.7 64.2 42 62.1H58C58.3 64 58.4 65.9 58.4 67.8 58.4 69.9 58.2 72 57.9 74.1H41.8C41.6 72.2 41.5 70.2 41.5 68.4M43.2 56.3C44.4 52.3 46.1 48.6 48.4 45.1 49.5 45 50.6 45 51.7 45.1 53.9 48.6 55.6 52.3 56.7 56.3zM59.4 47.1C63.7 49 67.4 52.3 69.8 56.4H62.7C61.9 53.1 60.8 50 59.4 47.1M63.7 62H72.2C72.7 64 73 66 73 68S72.7 72 72.2 74H63.7C64 71.9 64.1 69.8 64.1 67.7 64.1 65.8 64 63.9 63.7 62M37.3 56.3H30.2C32.7 52.2 36.4 48.9 40.8 47 39.3 50 38.1 53.1 37.3 56.3M30.3 79.8H37.2C38 83 39.1 86 40.5 88.9 36.2 87 32.6 83.8 30.3 79.8M48.1 91C45.9 87.5 44.2 83.8 43.1 79.9H56.7C55.5 83.9 53.8 87.6 51.5 91.1 50.2 91.1 49.2 91.1 48.1 91M59 89.2C60.5 86.2 61.7 83.1 62.5 79.8H69.7C67.2 84 63.5 87.3 59 89.2M88.4 21.9V69.3C88.4 72.2 86.5 74.1 83.6 74.1H78.1C78.5 72.2 78.7 70.2 78.7 68.1 78.7 60.4 75.7 53.2 70.3 47.8S57.7 39.4 50 39.4 35.1 42.4 29.7 47.8 21.3 60.4 21.3 68.1C21.3 70.1 21.5 72.1 21.9 74.1H16.4C13.4 74.1 11.6 72.3 11.6 69.3V20.9H88.3C88.4 21.2 88.4 21.6 88.4 21.9" fill="#000000" data-fill-palette-color="accent"></path></svg></g></svg></g></svg></g></svg></g></svg></g><defs></defs></svg><rect width="395.52" height="96.84736728594129" fill="none" stroke="none" visibility="hidden"></rect></g></svg></g></svg>